<svg width="1280" height="640" viewBox="0 0 1280 640" fill="none" xmlns="http://www.w3.org/2000/svg">
<g filter="url(#filter0_d_1_2)">
<path d="M119.401 389.5C106.235 389.5 95.4014 388 86.9014 385C78.4014 381.833 71.7347 377.5 66.9014 372C62.068 366.5 58.6514 360.083 56.6514 352.75C54.818 345.417 53.9014 337.417 53.9014 328.75C53.9014 309.917 59.2347 295 69.9014 284C80.7347 273 96.7347 267.5 117.901 267.5C130.235 267.5 140.151 269.167 147.651 272.5C155.318 275.833 161.068 280.25 164.901 285.75C168.901 291.25 171.568 297.25 172.901 303.75C174.401 310.083 175.151 316.333 175.151 322.5V334.25C175.151 333.75 172.818 333.25 168.151 332.75C163.651 332.083 155.985 331.75 145.151 331.75H79.4014C79.4014 344.083 83.068 353.833 90.4014 361C97.7347 368.167 108.651 371.75 123.151 371.75C135.651 371.75 145.901 370.25 153.901 367.25C162.068 364.083 167.485 361 170.151 358V363L172.651 379.5C168.985 381.667 162.485 383.917 153.151 386.25C143.985 388.417 132.735 389.5 119.401 389.5ZM89.4014 315.25H150.151C150.151 310.917 149.235 306.417 147.401 301.75C145.568 297.083 142.318 293.167 137.651 290C132.985 286.667 126.401 285 117.901 285C110.735 285 104.485 286.25 99.1514 288.75C93.818 291.083 89.6514 294.167 86.6514 298C83.818 301.833 82.4014 305.917 82.4014 310.25C82.4014 311.917 82.9014 313.167 83.9014 314C84.9014 314.833 86.7347 315.25 89.4014 315.25ZM196.544 387C197.711 387 198.794 385.833 199.794 383.5C200.961 381.167 201.544 377.333 201.544 372V287.5C201.544 282.167 200.961 278.417 199.794 276.25C198.794 273.917 197.711 272.667 196.544 272.5C203.877 272.5 210.211 272 215.544 271C221.044 269.833 224.877 268.667 227.044 267.5V282.75L226.544 286L227.044 286.5C229.544 283.333 232.711 280.333 236.544 277.5C240.544 274.667 245.461 272.333 251.294 270.5C257.127 268.5 263.961 267.5 271.794 267.5C287.294 267.5 299.127 271.917 307.294 280.75C315.627 289.583 319.794 303.417 319.794 322.25V372C319.794 377.333 320.294 381.167 321.294 383.5C322.461 385.833 323.627 387 324.794 387H289.294C290.461 387 291.544 385.833 292.544 383.5C293.711 381.167 294.294 377.333 294.294 372V323C294.294 313.167 293.044 305.5 290.544 300C288.044 294.5 284.544 290.667 280.044 288.5C275.711 286.167 270.627 285 264.794 285C258.627 285 252.627 286.333 246.794 289C240.961 291.667 236.211 295.917 232.544 301.75C228.877 307.583 227.044 315.417 227.044 325.25V372C227.044 377.333 227.544 381.167 228.544 383.5C229.711 385.833 230.877 387 232.044 387H196.544ZM408.952 389.5C395.785 389.5 384.952 388 376.452 385C367.952 381.833 361.285 377.5 356.452 372C351.619 366.5 348.202 360.083 346.202 352.75C344.369 345.417 343.452 337.417 343.452 328.75C343.452 309.917 348.785 295 359.452 284C370.285 273 386.285 267.5 407.452 267.5C419.785 267.5 429.702 269.167 437.202 272.5C444.869 275.833 450.619 280.25 454.452 285.75C458.452 291.25 461.119 297.25 462.452 303.75C463.952 310.083 464.702 316.333 464.702 322.5V334.25C464.702 333.75 462.369 333.25 457.702 332.75C453.202 332.083 445.535 331.75 434.702 331.75H368.952C368.952 344.083 372.619 353.833 379.952 361C387.285 368.167 398.202 371.75 412.702 371.75C425.202 371.75 435.452 370.25 443.452 367.25C451.619 364.083 457.035 361 459.702 358V363L462.202 379.5C458.535 381.667 452.035 383.917 442.702 386.25C433.535 388.417 422.285 389.5 408.952 389.5ZM378.952 315.25H439.702C439.702 310.917 438.785 306.417 436.952 301.75C435.119 297.083 431.869 293.167 427.202 290C422.535 286.667 415.952 285 407.452 285C400.285 285 394.035 286.25 388.702 288.75C383.369 291.083 379.202 294.167 376.202 298C373.369 301.833 371.952 305.917 371.952 310.25C371.952 311.917 372.452 313.167 373.452 314C374.452 314.833 376.285 315.25 378.952 315.25ZM486.095 387C487.261 387 488.345 385.833 489.345 383.5C490.511 381.167 491.095 377.333 491.095 372V287.5C491.095 282.167 490.511 278.417 489.345 276.25C488.345 273.917 487.261 272.667 486.095 272.5C493.428 272.5 499.761 272 505.095 271C510.595 269.833 514.428 268.667 516.595 267.5V280L516.095 284.25L516.595 284.75C519.095 281.417 522.095 278.5 525.595 276C529.261 273.333 533.428 271.25 538.095 269.75C542.761 268.25 548.095 267.5 554.095 267.5C561.928 267.5 568.678 268.667 574.345 271C580.178 273.167 584.345 275.417 586.845 277.75L581.845 298.75V306.25C579.678 303.583 576.511 300.833 572.345 298C568.345 295 563.761 292.5 558.595 290.5C553.428 288.5 547.928 287.5 542.095 287.5C535.428 287.5 529.511 290.167 524.345 295.5C519.178 300.833 516.595 309.667 516.595 322V372C516.595 377.333 517.095 381.167 518.095 383.5C519.261 385.833 520.428 387 521.595 387H486.095ZM656.714 448C647.047 448 638.131 447.333 629.964 446C621.964 444.667 614.964 443 608.964 441C603.131 439.167 598.631 437.333 595.464 435.5L600.464 413V405.75C602.797 409.25 606.464 412.917 611.464 416.75C616.464 420.583 622.714 423.833 630.214 426.5C637.714 429.167 646.214 430.5 655.714 430.5C666.881 430.5 675.131 428.667 680.464 425C685.964 421.333 689.547 416.25 691.214 409.75C693.047 403.25 693.964 395.833 693.964 387.5V378.25L694.464 373.75L693.964 373.25C691.797 376.083 688.797 378.75 684.964 381.25C681.131 383.75 676.547 385.75 671.214 387.25C665.881 388.75 659.881 389.5 653.214 389.5C637.381 389.5 625.047 386.833 616.214 381.5C607.547 376.167 601.464 368.917 597.964 359.75C594.631 350.583 592.964 340.25 592.964 328.75C592.964 317.083 594.631 306.667 597.964 297.5C601.464 288.333 607.547 281.083 616.214 275.75C625.047 270.25 637.381 267.5 653.214 267.5C659.881 267.5 665.797 268.167 670.964 269.5C676.131 270.667 680.631 272.333 684.464 274.5C688.297 276.5 691.464 278.917 693.964 281.75L694.464 281.5L693.964 276.75V270H724.464C723.297 270.167 722.131 271.417 720.964 273.75C719.964 276.083 719.464 280 719.464 285.5V381.25C719.464 405.417 714.297 422.583 703.964 432.75C693.797 442.917 678.047 448 656.714 448ZM654.964 371.75C665.297 371.75 673.297 370.167 678.964 367C684.631 363.667 688.547 358.833 690.714 352.5C692.881 346 693.964 338.083 693.964 328.75C693.964 319.583 692.797 311.75 690.464 305.25C688.297 298.75 684.381 293.75 678.714 290.25C673.214 286.75 665.297 285 654.964 285C645.631 285 638.297 286.833 632.964 290.5C627.631 294 623.797 299.083 621.464 305.75C619.297 312.25 618.214 320 618.214 329C618.214 337.833 619.297 345.5 621.464 352C623.631 358.333 627.381 363.25 632.714 366.75C638.214 370.083 645.631 371.75 654.964 371.75ZM753.464 448C743.464 448 735.547 447 729.714 445C723.881 443 720.131 441.083 718.464 439.25L723.464 413V405.5C724.631 409 726.547 412.667 729.214 416.5C731.714 420.5 734.964 423.833 738.964 426.5C742.964 429.167 747.464 430.5 752.464 430.5C758.131 430.5 762.964 429.333 766.964 427C770.964 424.833 774.464 421.667 777.464 417.5C780.631 413.333 783.631 408.5 786.464 403C789.797 396.333 791.881 391.75 792.714 389.25C791.714 387.917 790.131 384.833 787.964 380C785.797 375.167 783.214 369.333 780.214 362.5C777.214 355.5 774.047 348.083 770.714 340.25C767.547 332.417 764.381 324.833 761.214 317.5C758.047 310.167 755.214 303.667 752.714 298C750.214 292.333 748.297 288.25 746.964 285.75C744.131 280.417 741.547 276.5 739.214 274C736.881 271.5 735.214 270.167 734.214 270H774.964C773.631 270 772.714 271.25 772.214 273.75C771.881 276.083 772.797 280.083 774.964 285.75C776.297 288.917 778.131 293.5 780.464 299.5C782.797 305.333 785.381 312 788.214 319.5C791.047 326.833 793.964 334.333 796.964 342C799.964 349.5 802.714 356.5 805.214 363H805.464C808.131 356.167 811.047 348.833 814.214 341C817.381 333.167 820.464 325.5 823.464 318C826.631 310.5 829.381 303.833 831.714 298C834.214 292.167 836.047 287.917 837.214 285.25C839.547 279.917 840.464 276.083 839.964 273.75C839.464 271.417 838.547 270.167 837.214 270H876.464C875.464 270.167 873.881 271.417 871.714 273.75C869.714 275.917 867.381 279.667 864.714 285C863.214 287.833 860.881 292.667 857.714 299.5C854.714 306.333 851.214 314.167 847.214 323C843.214 331.833 839.131 341 834.964 350.5C830.797 359.833 826.881 368.667 823.214 377C819.547 385.167 816.464 391.917 813.964 397.25C808.797 408.417 803.297 417.75 797.464 425.25C791.797 432.917 785.381 438.583 778.214 442.25C771.047 446.083 762.797 448 753.464 448ZM1009.76 389.5C993.092 389.5 980.009 386.833 970.509 381.5C961.175 376.167 954.592 368.917 950.759 359.75C947.092 350.583 945.259 340.25 945.259 328.75C945.259 317.083 947.175 306.667 951.009 297.5C955.009 288.333 961.675 281.083 971.009 275.75C980.342 270.25 993.259 267.5 1009.76 267.5C1026.26 267.5 1039.18 270.25 1048.51 275.75C1057.84 281.083 1064.43 288.333 1068.26 297.5C1072.26 306.667 1074.26 317.083 1074.26 328.75C1074.26 340.25 1072.34 350.583 1068.51 359.75C1064.84 368.917 1058.34 376.167 1049.01 381.5C1039.68 386.833 1026.59 389.5 1009.76 389.5ZM1009.76 371.75C1020.09 371.75 1028.09 370.083 1033.76 366.75C1039.43 363.417 1043.34 358.583 1045.51 352.25C1047.68 345.75 1048.76 337.917 1048.76 328.75C1048.76 319.583 1047.59 311.75 1045.26 305.25C1043.09 298.75 1039.18 293.75 1033.51 290.25C1028.01 286.75 1020.09 285 1009.76 285C999.592 285 991.675 286.833 986.009 290.5C980.342 294 976.342 299.083 974.009 305.75C971.842 312.25 970.759 320 970.759 329C970.759 337.833 971.842 345.5 974.009 352C976.175 358.333 980.092 363.25 985.759 366.75C991.425 370.083 999.425 371.75 1009.76 371.75ZM1094.49 442.5C1095.66 442.5 1096.74 441.333 1097.74 439C1098.91 436.667 1099.49 432.833 1099.49 427.5V285C1099.49 279.667 1098.91 275.917 1097.74 273.75C1096.74 271.417 1095.66 270.167 1094.49 270H1124.99V275L1124.49 279.75L1124.99 280.25C1127.16 278.083 1130.08 276.083 1133.74 274.25C1137.58 272.25 1142.08 270.667 1147.24 269.5C1152.41 268.167 1157.99 267.5 1163.99 267.5C1179.49 267.5 1191.74 270.25 1200.74 275.75C1209.74 281.083 1216.16 288.333 1219.99 297.5C1223.99 306.667 1225.99 317.083 1225.99 328.75C1225.99 340.25 1224.08 350.583 1220.24 359.75C1216.41 368.917 1209.99 376.167 1200.99 381.5C1191.99 386.833 1179.66 389.5 1163.99 389.5C1154.83 389.5 1147.08 388.417 1140.74 386.25C1134.58 384.083 1129.33 381.083 1124.99 377.25L1124.49 377.5L1124.99 382.25V427.5C1124.99 432.833 1125.49 436.667 1126.49 439C1127.66 441.333 1128.83 442.5 1129.99 442.5H1094.49ZM1161.49 371.75C1171.83 371.75 1179.83 370.083 1185.49 366.75C1191.16 363.417 1195.08 358.583 1197.24 352.25C1199.41 345.75 1200.49 337.917 1200.49 328.75C1200.49 319.583 1199.33 311.75 1196.99 305.25C1194.83 298.75 1190.91 293.75 1185.24 290.25C1179.74 286.75 1171.83 285 1161.49 285C1151.49 285 1143.83 287 1138.49 291C1133.33 295 1129.74 300.333 1127.74 307C1125.91 313.667 1124.99 321 1124.99 329C1124.99 337.167 1125.99 344.5 1127.99 351C1130.16 357.5 1133.83 362.583 1138.99 366.25C1144.33 369.917 1151.83 371.75 1161.49 371.75Z" fill="#00BF63"/>
</g>
<defs>
<filter id="filter0_d_1_2" x="49.9014" y="267.5" width="1180.09" height="188.5" filterUnits="userSpaceOnUse" color-interpolation-filters="sRGB">
<feFlood flood-opacity="0" result="BackgroundImageFix"/>
<feColorMatrix in="SourceAlpha" type="matrix" values="0 0 0 0 0 0 0 0 0 0 0 0 0 0 0 0 0 0 127 0" result="hardAlpha"/>
<feOffset dy="4"/>
<feGaussianBlur stdDeviation="2"/>
<feComposite in2="hardAlpha" operator="out"/>
<feColorMatrix type="matrix" values="0 0 0 0 0 0 0 0 0 0 0 0 0 0 0 0 0 0 0.25 0"/>
<feBlend mode="normal" in2="BackgroundImageFix" result="effect1_dropShadow_1_2"/>
<feBlend mode="normal" in="SourceGraphic" in2="effect1_dropShadow_1_2" result="shape"/>
</filter>
</defs>
</svg>
